<svg width="391" height="320" viewBox="0 0 391 320" fill="none" xmlns="http://www.w3.org/2000/svg">
<g clip-path="url(#clip0_223_286)">
<path opacity="0.1" d="M67.2205 320C104.345 320 134.441 314.872 134.441 308.546C134.441 302.22 104.345 297.092 67.2205 297.092C30.0956 297.092 0 302.22 0 308.546C0 314.872 30.0956 320 67.2205 320Z" fill="#00C7FA"/>
<path opacity="0.1" d="M323.678 317.288C360.803 317.288 390.898 312.16 390.898 305.834C390.898 299.508 360.803 294.38 323.678 294.38C286.553 294.38 256.458 299.508 256.458 305.834C256.458 312.16 286.553 317.288 323.678 317.288Z" fill="#00C7FA"/>
<path opacity="0.1" d="M104.807 0.175684C87.2376 1.11524 69.4853 6.24844 55.7776 17.2825C43.7505 26.9684 35.0768 42.1961 37.1927 57.4964C39.6905 75.5581 55.8044 88.6966 61.7816 105.926C65.6277 117.002 65.0281 129.224 62.5111 140.682C60.8917 148.065 58.4015 155.455 53.6159 161.306C44.9956 171.832 29.4394 176.912 25.2038 189.841C20.5976 203.9 32.2046 217.687 43.1089 227.686C51.8132 235.665 60.9299 243.605 71.8991 247.979C79.9197 251.179 88.624 252.329 97.2519 252.787C121.077 254.037 144.897 250.231 167.146 241.619C177.806 237.483 188.118 232.239 199.274 229.745C223.05 224.429 247.513 232.094 271.609 235.684C292.265 238.753 313.256 238.814 333.929 235.867C346.938 234.011 360.378 230.662 370.175 221.908C380.105 213.02 385.07 199.263 384.52 185.933C383.97 172.604 378.348 159.771 370.068 149.306C359.374 135.789 344.623 126.172 331.79 114.653C318.723 102.917 307.607 89.1765 298.86 73.9463C293.818 65.1618 289.529 55.8388 282.998 48.1046C272.812 36.0508 258.039 28.8819 243.277 23.3438C209.224 10.5872 173.902 7.99006 138.398 2.35271C127.303 0.584353 116.047 -0.412496 104.807 0.175684V0.175684Z" fill="#00C7FA"/>
<g opacity="0.7">
<path opacity="0.7" d="M98.7451 140.212H171.679V180.968H98.7451V140.212Z" fill="#F6F7F9"/>
<path opacity="0.2" d="M112.476 165.897C116.669 165.897 120.069 162.498 120.069 158.304C120.069 154.111 116.669 150.711 112.476 150.711C108.282 150.711 104.883 154.111 104.883 158.304C104.883 162.498 108.282 165.897 112.476 165.897Z" fill="#00C7FA"/>
<path opacity="0.2" d="M129.327 149.306H162.41V151.387H129.327V149.306ZM129.327 154.611H146.181V156.692H129.327V154.611ZM129.327 159.916H156.585V161.998H129.327V159.916ZM129.327 165.221H162.41V167.303H129.327V165.221ZM153.259 172.879H162.414V176.901H153.259V172.879Z" fill="#00C7FA"/>
<path opacity="0.7" d="M160.149 27.5757H233.083V68.3319H160.149V27.5757Z" fill="#F6F7F9"/>
<path opacity="0.2" d="M173.883 53.2608C178.076 53.2608 181.476 49.8613 181.476 45.6679C181.476 41.4745 178.076 38.075 173.883 38.075C169.689 38.075 166.29 41.4745 166.29 45.6679C166.29 49.8613 169.689 53.2608 173.883 53.2608Z" fill="#00C7FA"/>
<path opacity="0.2" d="M190.734 36.6695H223.817V38.7511H190.734V36.6695ZM190.734 41.9746H207.589V44.0561H190.734V41.9746ZM190.734 47.2797H217.993V49.3612H190.734V47.2797ZM190.734 52.5886H223.817V54.6701H190.734V52.5886ZM214.662 60.2425H223.817V64.2643H214.662V60.2425Z" fill="#00C7FA"/>
<path opacity="0.7" d="M184.424 96.0031H257.359V136.759H184.424V96.0031Z" fill="#F6F7F9"/>
<path opacity="0.2" d="M198.155 121.692C202.348 121.692 205.748 118.293 205.748 114.099C205.748 109.906 202.348 106.506 198.155 106.506C193.961 106.506 190.562 109.906 190.562 114.099C190.562 118.293 193.961 121.692 198.155 121.692Z" fill="#00C7FA"/>
<path opacity="0.2" d="M215.01 105.101H248.093V107.182H215.01V105.101ZM215.01 110.406H231.865V112.487H215.01V110.406ZM215.01 115.711H242.268V117.792H215.01V115.711ZM215.01 121.016H248.093V123.097H215.01V121.016ZM238.938 128.674H248.093V132.695H238.938V128.674Z" fill="#00C7FA"/>
</g>
<path d="M73.2856 51.8323H195.929V121.131H73.2856V51.8323Z" fill="url(#paint0_linear_223_286)"/>
<path d="M74.1523 52.6917H195.073V120.267H74.1523V52.6917Z" fill="#F6F7F9"/>
<path opacity="0.2" d="M96.9157 95.2812C103.868 95.2812 109.504 89.6451 109.504 82.6926C109.504 75.7402 103.868 70.1041 96.9157 70.1041C89.9632 70.1041 84.3271 75.7402 84.3271 82.6926C84.3271 89.6451 89.9632 95.2812 96.9157 95.2812Z" fill="#00C7FA"/>
<path opacity="0.2" d="M124.862 67.7704H179.715V71.2193H124.862V67.7704ZM124.862 76.5702H152.804V80.0191H124.862V76.5702ZM124.862 85.3662H170.056V88.815H124.862V85.3662ZM124.862 94.1621H179.715V97.611H124.862V94.1621Z" fill="#00C7FA"/>
<path d="M164.534 106.858H179.712V113.526H164.534V106.858Z" fill="#00C7FA"/>
<path d="M159.312 145.448H275.963V210.633H159.312V145.448Z" fill="url(#paint1_linear_223_286)"/>
<path d="M160.118 145.895H275.157V210.182H160.118V145.895Z" fill="#F6F7F9"/>
<path opacity="0.2" d="M181.778 186.415C188.393 186.415 193.755 181.052 193.755 174.437C193.755 167.822 188.393 162.46 181.778 162.46C175.163 162.46 169.8 167.822 169.8 174.437C169.8 181.052 175.163 186.415 181.778 186.415Z" fill="#00C7FA"/>
<path opacity="0.2" d="M208.36 160.241H260.544V163.521H208.36V160.241ZM208.36 168.613H234.943V171.893H208.36V168.613ZM208.36 176.981H251.355V180.262H208.36V176.981ZM208.36 185.349H260.544V188.63H208.36V185.349Z" fill="#00C7FA"/>
<path opacity="0.5" d="M246.104 197.426H260.544V203.77H246.104V197.426Z" fill="#00C7FA"/>
<path opacity="0.1" d="M31.647 109.967L31.9296 110.028C31.847 109.971 31.7456 109.949 31.647 109.967V109.967Z" fill="url(#paint2_linear_223_286)"/>
<path d="M90.74 154.336C89.8959 148.668 84.7474 135.445 84.7474 135.445C84.6558 135.064 84.5565 134.659 84.4419 134.269C80.7868 121.707 75.73 120.596 75.73 120.596L57.6148 116.734C57.7643 116.828 57.8941 116.95 57.9967 117.093L57.7103 117.139C56.8789 116.159 56.3297 114.971 56.1214 113.702C56.0871 113.515 56.0565 113.32 56.0336 113.121C57.3355 111.853 58.3511 110.322 59.012 108.629C59.673 106.936 59.964 105.121 59.8656 103.306C59.7672 101.492 59.2816 99.7192 58.4415 98.1078C57.6014 96.4963 56.4261 95.0832 54.9947 93.9635C54.8076 93.8146 54.6128 93.6733 54.4142 93.5319C55.2697 92.6268 55.2965 91.3626 54.6586 90.0945C53.2302 87.1269 50.1289 85.2516 46.9359 84.3388C44.4992 83.6398 41.8562 83.4145 39.4424 84.1784C38.0636 84.6138 36.8108 85.3509 35.5199 85.9964C33.1137 87.1995 30.4631 88.1505 28.6451 90.1251C28.2211 90.5872 27.8354 91.1754 27.9576 91.7827C28.0531 92.2372 28.4083 92.5847 28.6413 92.9896C29.1569 93.891 29.0232 95.0253 28.6756 96.0069C28.3281 96.9885 27.801 97.9165 27.5527 98.9096C27.3045 99.9026 27.4038 101.102 28.16 101.82C28.5274 102.107 28.9099 102.375 29.3058 102.622C29.7208 102.973 30.0846 103.381 30.3867 103.833L32.5332 106.732C33.5351 108.017 34.4293 109.382 35.2067 110.814C35.7376 111.865 36.1539 112.992 36.8681 113.931C37.0782 114.21 37.3177 114.467 37.5823 114.695C37.5136 114.668 37.441 114.645 37.3723 114.615C37.6885 114.923 38.0644 115.164 38.4767 115.322C38.8891 115.48 39.3295 115.553 39.7708 115.535H39.8778C40.0415 115.533 40.1983 115.468 40.317 115.356V115.738C40.3552 117.132 40.3514 118.614 40.2521 120.004L40.084 119.92C39.8352 119.795 39.5558 119.744 39.2789 119.773C39.002 119.802 38.7393 119.91 38.5219 120.084L21.8352 133.452C21.8352 133.452 18.2106 138.417 18.7148 146.972L15.793 159.813C15.793 159.813 12.1379 170.709 14.9489 178.489C17.7599 186.269 19.3908 190.711 19.3908 190.711C19.3908 190.711 20.5137 199.549 22.2018 200.26C23.89 200.97 24.6195 201.375 24.6195 201.375L24.9556 203.487C24.9556 203.487 25.0663 203.69 25.265 204.041C26.4948 206.176 31.0436 213.715 33.6904 212.913C34.021 214.96 34.1655 217.032 34.122 219.104L36.7344 236.673C36.7344 236.673 38.5601 241.451 38.4493 243.953C38.3386 246.455 40.5843 250.014 40.5843 250.014C39.221 252.508 38.8213 255.415 39.4615 258.184C40.5309 262.855 41.8791 284.419 41.8791 284.419L43.8461 289.644L43.7888 295.755C43.6259 296.747 43.2103 297.681 42.5819 298.467C41.3138 299.842 41.3979 301.43 38.3806 303.306C35.3633 305.181 33.4154 305.888 33.4154 308.389C33.4119 308.735 33.3813 309.08 33.3238 309.42C33.0411 311.25 32.495 312.235 38.098 312.77C44.6749 313.393 49.0595 309.1 49.0595 309.1C49.0595 309.1 50.0258 307.347 54.5822 306.64C54.5822 306.64 56.1367 306.556 56.2246 305.177C56.2551 304.704 56.2475 303.795 56.2055 302.794C56.1329 300.884 55.9496 298.661 55.709 298.551C55.4072 298.417 54.8725 296.496 54.6892 295.801H55.9572C55.9572 295.801 57.1374 286.963 55.9572 281.234C54.777 275.505 55.8465 271.452 55.8465 271.452L55.6211 256.335C55.6211 256.335 54.0284 254.72 55.2774 251.779C56.5263 248.838 55.2774 234.271 55.2774 234.271C55.2774 234.271 55.7319 229.046 57.0228 227.824C58.3137 226.602 57.0877 220.166 57.0228 219.83L59.3144 227.545C59.3144 227.545 60.3265 242.887 62.4654 245.668L63.0841 252.612C63.0841 252.612 67.4687 259.005 66.6246 262.454C65.7806 265.903 67.526 278.35 67.526 278.35V291.08C67.526 291.08 65.5552 296.194 68.3128 298.027L69.5006 297.982C69.0958 298.363 68.8055 298.894 68.3548 299.364C67.8277 299.906 67.5298 301.969 67.3618 303.741C67.2205 305.242 67.1746 306.533 67.1746 306.533C67.1746 306.533 68.3548 308.408 70.5471 308.534C72.7394 308.66 79.9923 314.206 79.9923 314.206C79.9923 314.206 87.1651 314.206 89.0175 313.824L89.1282 313.797C89.7233 313.608 90.2234 313.198 90.5261 312.652C90.8998 312.019 91.0212 311.269 90.866 310.551C90.633 309.455 89.7661 308.259 87.8373 307.232C83.0287 304.692 82.3145 302.316 82.3145 302.316L79.1636 297.596H79.6142C79.6142 297.596 79.3354 292.592 82.7614 286.978L82.5399 262.244C82.5399 262.244 83.9416 253.738 81.5277 249.124C81.5277 249.124 81.3291 244.232 82.9447 242.731C84.5603 241.23 80.7944 226.056 80.7944 226.056C80.7944 226.056 80.0305 217.913 79.0986 210.48C82.8912 214.078 86.829 201.119 87.5012 198.816H87.6005C87.6005 198.816 87.5814 198.755 87.5547 198.648C87.5279 198.541 87.6005 198.484 87.6005 198.484C87.6005 198.465 86.7602 195.486 87.3751 196.093C87.9901 196.7 89.514 194.428 89.514 194.428C89.514 194.428 89.2886 182.03 91.9316 175.782C94.5746 169.533 90.74 154.336 90.74 154.336V154.336ZM79.4385 162.223L79.4576 162.189C79.8396 169.758 79.3812 185.91 79.3812 185.91C79.3812 185.91 78.8618 187.981 78.3042 190.417L77.9032 175.071L77.5212 160.619L79.4385 162.223ZM31.036 157.006C31.036 157.006 32.9457 180.907 31.036 184.352C30.4898 185.334 30.0353 187.079 29.6572 189.077C29.027 187.419 27.6902 183.527 28.1677 181.465C28.7864 178.791 26.9302 171.79 26.9302 171.626C26.9302 171.462 26.7621 167.734 28.1104 164.87C29.4586 162.005 28.561 160.783 28.561 160.783C28.561 160.783 29.6878 156.116 31.036 157.006V157.006Z" fill="url(#paint3_linear_223_286)"/>
<path d="M35.6882 210.836C34.0268 218.153 27.404 207.085 25.8954 204.43L25.5898 203.88L26.3079 200.516L30.1043 198.969C30.704 199.282 31.2719 199.653 31.8001 200.076C33.8893 201.696 36.9715 205.168 35.6882 210.836ZM87.0584 198.858L87.0164 199.022C87.0164 199.072 86.982 199.129 86.9629 199.202C86.3136 201.493 82.4522 214.349 78.7246 210.778C74.6455 206.86 76.6277 197.861 76.6277 197.861H76.6659L85.248 196.983L86.9476 198.732L87.0584 198.858Z" fill="#EFB7B9"/>
<path d="M82.0932 262.148L82.3109 286.699C78.9499 292.275 79.2211 297.241 79.2211 297.241L68.145 297.68C65.4409 295.862 67.3811 290.786 67.3811 290.786V278.148C67.3811 278.148 65.6509 265.796 66.4759 262.358C67.3009 258.921 63.0003 252.592 63.0003 252.592L62.3968 245.698C60.2962 242.941 59.3032 227.709 59.3032 227.709L57.0459 220.071C57.1032 220.403 58.2758 226.823 57.0459 228.003C55.8161 229.184 55.3349 234.405 55.3349 234.405C55.3349 234.405 56.5494 248.861 55.3349 251.783C54.1203 254.704 55.6633 256.366 55.6633 256.366L55.8887 271.372C55.8887 271.372 54.8384 275.402 55.9956 281.085C57.1529 286.768 55.9956 295.541 55.9956 295.541H44.0793L44.1327 289.43L42.204 284.243C42.204 284.243 40.8787 262.836 39.8322 258.203C39.2032 255.455 39.5941 252.572 40.9321 250.091C40.9321 250.091 38.7284 246.558 38.8391 244.075C38.9499 241.593 37.1548 236.849 37.1548 236.849L34.5882 219.414C34.6605 216.059 34.2331 212.712 33.3202 209.483C31.8268 204.518 29.623 198.006 29.623 198.006L32.1133 198.228L44.6865 199.347C44.6865 199.347 75.2413 197.292 76.6201 198.999C76.9103 199.557 77.1065 200.158 77.2006 200.779C78.5718 206.947 80.386 226.258 80.386 226.258C80.386 226.258 84.0831 241.321 82.4942 242.811C80.9054 244.301 81.104 249.155 81.104 249.155C83.472 253.708 82.0932 262.148 82.0932 262.148V262.148Z" fill="#444053"/>
<path d="M56.2554 304.837C56.1675 306.205 54.6398 306.289 54.6398 306.289C50.1711 306.991 49.224 308.733 49.224 308.733C49.224 308.733 44.9196 312.991 38.4725 312.392C32.9765 311.865 33.5074 310.864 33.79 309.069C33.8463 308.731 33.8756 308.388 33.8778 308.045C33.8778 305.563 35.7875 304.856 38.7628 302.996C41.738 301.136 41.6578 299.559 42.8991 298.195C44.1404 296.832 44.2664 294.185 44.2664 294.185C45.672 291.741 49.2316 294.567 49.2316 294.567C49.3958 295.434 54.6933 295.331 54.6933 295.331C54.6933 295.331 55.396 298.146 55.755 298.31C55.9918 298.421 56.1713 300.628 56.2439 302.511C56.2783 303.466 56.2821 304.371 56.2554 304.837V304.837Z" fill="#B07473"/>
<path opacity="0.1" d="M56.2554 304.837C56.1675 306.205 54.6398 306.289 54.6398 306.289C50.1712 306.991 49.224 308.733 49.224 308.733C49.224 308.733 44.9196 312.991 38.4725 312.392C32.9765 311.865 33.5074 310.864 33.79 309.069C36.2458 309.68 40.9436 310.528 43.6859 309.038C47.5053 306.968 50.2284 305.521 50.2284 305.521L56.2363 302.462C56.2783 303.466 56.2821 304.371 56.2554 304.837V304.837Z" fill="black"/>
<path d="M89.934 312.205C89.6407 312.75 89.1481 313.16 88.5591 313.351C88.5244 313.363 88.4886 313.372 88.4521 313.377C86.6303 313.759 79.5951 313.759 79.5951 313.759C79.5951 313.759 72.4644 308.236 70.3255 308.11C68.1867 307.984 67.0142 306.124 67.0142 306.124C67.0142 306.124 67.0562 304.841 67.1937 303.351C67.3617 301.591 67.6558 299.532 68.1714 299.005C69.1263 298.012 69.3172 296.648 71.4828 297.515C71.4828 297.515 74.5383 292.126 78.1437 296.289L81.8714 301.946C81.8714 301.946 82.5742 304.302 87.2949 306.827C89.1855 307.839 90.0372 309.031 90.2625 310.119C90.4175 310.831 90.3003 311.575 89.934 312.205V312.205Z" fill="#B07473"/>
<path opacity="0.1" d="M89.9341 312.205C89.5139 312.56 89.0441 312.942 88.5591 313.351C88.5244 313.363 88.4886 313.372 88.4521 313.377C86.6303 313.759 79.5951 313.759 79.5951 313.759C79.5951 313.759 72.4644 308.236 70.3255 308.11C68.1867 307.984 67.0142 306.124 67.0142 306.124C67.0142 306.124 67.0562 304.841 67.1937 303.351C69.3821 304.008 72.705 305.166 73.5949 306.407C74.9584 308.317 79.1024 310.956 79.1024 310.956C79.1024 310.956 86.8289 310.215 90.2625 310.112C90.4195 310.826 90.3022 311.573 89.9341 312.205V312.205Z" fill="black"/>
<path d="M59.8606 119.652L49.6782 130.412C49.6782 130.412 37.3455 129.503 39.4996 125.859C40.5958 124.006 40.7677 120.13 40.6722 116.746C40.5805 113.488 40.2444 110.715 40.2444 110.715C40.2444 110.715 57.5422 102.106 56.2169 110.135C55.9356 111.648 55.9188 113.199 56.1673 114.718C56.9197 118.774 59.8606 119.652 59.8606 119.652V119.652Z" fill="#EFB7B9"/>
<path opacity="0.1" d="M56.2132 110.135C55.9319 111.648 55.9151 113.199 56.1636 114.718C54.9807 115.916 53.5712 116.867 52.0172 117.516C50.4631 118.164 48.7956 118.497 47.1117 118.495C44.759 118.495 42.2421 116.585 40.3515 115.459C40.2598 112.201 40.2407 110.715 40.2407 110.715C40.2407 110.715 57.5385 102.106 56.2132 110.135Z" fill="black"/>
<path d="M59.8607 105.085C59.8617 107.974 58.8818 110.777 57.0814 113.036C55.281 115.295 52.7669 116.875 49.9509 117.519C47.1349 118.162 44.1839 117.83 41.5813 116.577C38.9787 115.324 36.8788 113.224 35.6254 110.622C34.3721 108.019 34.0397 105.068 34.6826 102.252C35.3256 99.436 36.9057 96.9217 39.1644 95.1211C41.423 93.3204 44.2261 92.3401 47.1146 92.3408C50.0032 92.3414 52.8059 93.323 55.0637 95.1246C56.5596 96.3184 57.7677 97.8336 58.5981 99.558C59.4286 101.282 59.8601 103.172 59.8607 105.085V105.085Z" fill="#EFB7B9"/>
<path opacity="0.1" d="M77.1964 200.749C74.0225 208.303 53.6043 208.46 53.6043 208.46V200.225L52.3668 200.145C52.9016 202.502 51.603 208.254 51.603 208.254C35.4662 210.545 31.5361 201.344 31.5361 201.344L32.0938 198.197L44.667 199.316C44.667 199.316 75.2218 197.262 76.6006 198.969C76.8961 199.525 77.0975 200.126 77.1964 200.749V200.749Z" fill="black"/>
<path d="M53.6043 207.467V199.228L52.3668 199.152C52.9016 201.509 51.603 207.261 51.603 207.261C39.4613 208.972 34.225 204.205 32.3802 201.722C32.0503 201.296 31.7673 200.835 31.5361 200.348L36.4593 172.623L37.6051 131.821L39.3811 124.663L39.7936 121.226V121.188L39.8356 121.207L41.0883 121.745L48.6048 124.992L57.1869 118.549L57.3129 118.453L57.7368 118.132L58.4434 118.701L60.1965 120.107L65.8262 156.444C65.8262 156.444 75.5885 184.425 77.3988 195.718C77.4714 196.169 77.5325 196.589 77.5783 196.983C78.7662 207.276 53.6043 207.467 53.6043 207.467V207.467Z" fill="#E1E7EF"/>
<path d="M49.5484 126.504C49.9492 126.504 50.2741 126.179 50.2741 125.779C50.2741 125.378 49.9492 125.053 49.5484 125.053C49.1476 125.053 48.8228 125.378 48.8228 125.779C48.8228 126.179 49.1476 126.504 49.5484 126.504Z" fill="#67647E"/>
<path d="M49.8844 133.123C50.2851 133.123 50.61 132.798 50.61 132.398C50.61 131.997 50.2851 131.672 49.8844 131.672C49.4836 131.672 49.1587 131.997 49.1587 132.398C49.1587 132.798 49.4836 133.123 49.8844 133.123Z" fill="#67647E"/>
<path d="M50.6065 143.844C51.0073 143.844 51.3322 143.519 51.3322 143.118C51.3322 142.718 51.0073 142.393 50.6065 142.393C50.2058 142.393 49.8809 142.718 49.8809 143.118C49.8809 143.519 50.2058 143.844 50.6065 143.844Z" fill="#67647E"/>
<path d="M51.8097 155.386C52.2104 155.386 52.5353 155.061 52.5353 154.661C52.5353 154.26 52.2104 153.935 51.8097 153.935C51.4089 153.935 51.084 154.26 51.084 154.661C51.084 155.061 51.4089 155.386 51.8097 155.386Z" fill="#67647E"/>
<path d="M52.5313 166.229C52.9321 166.229 53.257 165.904 53.257 165.504C53.257 165.103 52.9321 164.778 52.5313 164.778C52.1306 164.778 51.8057 165.103 51.8057 165.504C51.8057 165.904 52.1306 166.229 52.5313 166.229Z" fill="#67647E"/>
<path d="M53.2569 177.775C53.6577 177.775 53.9826 177.45 53.9826 177.05C53.9826 176.649 53.6577 176.324 53.2569 176.324C52.8561 176.324 52.5312 176.649 52.5312 177.05C52.5312 177.45 52.8561 177.775 53.2569 177.775Z" fill="#67647E"/>
<path d="M52.9669 189.199C53.3677 189.199 53.6926 188.874 53.6926 188.473C53.6926 188.072 53.3677 187.748 52.9669 187.748C52.5661 187.748 52.2412 188.072 52.2412 188.473C52.2412 188.874 52.5661 189.199 52.9669 189.199Z" fill="#67647E"/>
<path opacity="0.1" d="M40.3053 176.656C40.3053 176.656 39.4956 187.274 38.0137 190.36C36.5318 193.446 35.8596 202.112 35.8596 202.112L32.4222 201.73C32.0923 201.303 31.8093 200.842 31.5781 200.355L36.5013 172.631L37.6471 131.829L39.4231 124.671L39.8356 121.234C39.849 121.224 39.8647 121.217 39.8814 121.215C40.0742 121.123 40.2853 121.078 40.4985 121.081C40.7117 121.084 40.9213 121.137 41.1112 121.234L41.2793 121.318C41.2296 121.459 41.18 121.604 41.1341 121.753C39.7897 125.973 39.2856 133.757 39.2856 133.757C39.2856 133.757 41.2182 147.992 41.4359 154.615C41.6536 161.237 40.3053 176.656 40.3053 176.656V176.656Z" fill="black"/>
<path opacity="0.1" d="M31.8001 200.076C31.7622 200.164 31.7188 200.25 31.6702 200.332C30.3297 202.597 26.9304 204.037 25.8954 204.43L25.5898 203.88L26.3079 200.516L30.1043 198.969C30.704 199.282 31.2719 199.653 31.8001 200.076V200.076Z" fill="black"/>
<path d="M22.6107 145.891L19.4674 147.778L16.5953 160.523C16.5953 160.523 13.0089 171.34 15.7703 179.062C18.5317 186.785 20.1396 191.189 20.1396 191.189C20.1396 191.189 21.2434 199.973 22.8972 200.68C24.551 201.386 25.2728 201.784 25.2728 201.784L25.6013 203.88C25.6013 203.88 30.0928 202.353 31.6817 199.679C33.2705 197.006 30.513 190.318 30.513 190.318C30.513 190.318 28.1411 184.635 28.7484 181.988C29.3557 179.341 27.5339 172.386 27.5339 172.222C27.5339 172.058 27.3696 168.357 28.6797 165.515C29.9897 162.674 29.1227 161.463 29.1227 161.463L28.2939 153.351L22.6107 145.891Z" fill="#67647E"/>
<path opacity="0.1" d="M77.4561 198.361C77.4561 198.361 69.1262 201.509 66.4755 198.743C63.8249 195.978 64.1037 183.084 64.1037 183.084C64.1037 183.084 61.5677 159.248 59.9635 155.333C58.3594 151.418 59.1997 123.162 59.1997 123.162C59.1997 123.162 58.115 119.515 57.1869 118.549C57.1285 118.485 57.0617 118.43 56.9883 118.384L57.3129 118.453L58.4587 118.701L60.2118 120.107L65.8415 156.444C65.8415 156.444 75.6038 184.425 77.4141 195.718L77.4561 198.361Z" fill="black"/>
<path opacity="0.1" d="M87.0583 199.19H86.9628C85.9163 199.324 76.6506 200.443 76.6162 198.518C76.6164 198.295 76.6291 198.072 76.6544 197.85L85.2365 196.971L86.9361 198.721C86.9666 198.835 86.9934 198.934 87.0163 199.011L87.0583 199.19Z" fill="black"/>
<path d="M78.1934 133.123L84.2852 136.297C84.2852 136.297 89.3382 149.42 90.167 155.05C90.167 155.05 93.9176 170.125 91.3128 176.324C88.708 182.523 88.941 194.832 88.941 194.832C88.941 194.832 87.4515 197.093 86.8442 196.486C86.2369 195.879 87.0657 198.858 87.0657 198.858C87.0657 198.858 76.6656 200.241 76.616 198.193C76.5663 196.146 79.0031 186.384 79.0031 186.384C79.0031 186.384 79.6638 163.155 78.7243 159.515C77.7847 155.875 78.1934 133.123 78.1934 133.123V133.123Z" fill="#67647E"/>
<path opacity="0.1" d="M60.0211 157.865C60.0211 157.865 56.5836 166.248 55.4951 166.802C54.4066 167.356 55.7167 169.56 55.7167 169.56C55.7167 169.56 61.9536 160.844 60.0211 157.865V157.865ZM57.9815 128.452C58.0197 128.292 53.8948 132.497 52.7949 133.123C51.6949 133.75 56.8052 133.089 57.9815 128.452ZM46.4929 157.2C46.4929 157.2 40.2025 161.272 41.0275 162.876C41.8524 164.48 46.4929 157.2 46.4929 157.2ZM57.9242 216.572C57.9242 216.572 63.2713 220.009 71.609 220.876L57.9242 216.572ZM45.0683 224.849C45.0683 224.849 50.0335 231.082 52.2983 231.25C54.5632 231.418 45.0683 224.849 45.0683 224.849ZM52.0195 249.292C51.798 249.403 49.2047 254.918 46.5579 255.086C43.9111 255.254 52.0195 249.292 52.0195 249.292ZM75.0311 261.373C75.0311 261.373 79.9504 260.273 81.0427 263.802C81.0427 263.802 80.7143 262.698 75.0311 261.373ZM71.7197 281.57C71.7197 281.57 77.6779 280.355 78.9459 282.013C80.2139 283.67 71.7197 281.57 71.7197 281.57V281.57ZM54.8535 284.385C54.8535 284.438 48.7845 285.599 49.0252 286.371C49.2658 287.142 55.4951 287.031 55.7167 285.817C55.7593 285.666 55.7705 285.508 55.7497 285.353C55.7288 285.197 55.6763 285.048 55.5954 284.914C55.5145 284.779 55.4069 284.663 55.2793 284.572C55.1517 284.481 55.0068 284.417 54.8535 284.385ZM69.7337 289.625C69.7337 289.625 79.7021 288.41 79.0758 290.507C78.4494 292.604 69.7337 289.625 69.7337 289.625ZM17.5347 166.802C17.592 166.966 24.1001 167.849 24.9824 169.946C24.9824 169.946 18.585 166.966 17.592 166.966L17.5347 166.802ZM26.6935 183.852C26.6935 183.852 21.2853 185.563 21.6672 188.156C22.0491 190.75 21.121 186.945 26.6935 183.852ZM24.1727 196.983C24.1727 196.983 26.1435 194.279 28.0188 194.775C29.8941 195.272 24.1727 196.983 24.1727 196.983ZM55.0597 95.1246C54.8691 95.3084 54.6561 95.4676 54.4257 95.5982C52.856 96.5072 52.4358 97.8898 51.6834 99.5207C50.9959 100.999 50.2359 102.576 48.8418 103.401C47.0467 104.482 44.6787 104.085 42.8111 105.032C41.9834 105.466 41.3037 106.136 40.8588 106.958C40.4139 107.78 40.2239 108.716 40.3132 109.646C40.4346 110.363 40.6134 111.069 40.8479 111.758C41.2693 113.248 41.4612 114.793 41.417 116.341C41.4227 116.388 41.4227 116.435 41.417 116.482C39.817 115.684 38.4029 114.558 37.2664 113.178C36.1299 111.797 35.2965 110.193 34.8203 108.47C34.3441 106.746 34.2358 104.942 34.5024 103.174C34.769 101.406 35.4045 99.7134 36.3677 98.2069C37.3309 96.7004 38.6002 95.4134 40.0932 94.4295C41.5862 93.4455 43.2695 92.7866 45.0337 92.4956C46.7979 92.2045 48.6037 92.2878 50.3336 92.7401C52.0635 93.1924 53.679 94.0035 55.075 95.1208L55.0597 95.1246Z" fill="black"/>
<path d="M54.7275 91.29C53.3258 88.3453 50.2818 86.4853 47.15 85.561C44.759 84.8697 42.1657 84.6443 39.7939 85.4044C38.4419 85.836 37.2082 86.5502 35.944 87.2071C33.5798 88.4026 30.9789 89.3459 29.2029 91.3091C28.7904 91.7636 28.4084 92.3518 28.5307 92.9552C28.6223 93.4059 28.9737 93.7496 29.199 94.1507C29.707 95.0444 29.581 96.1711 29.2334 97.145C28.8859 98.119 28.3779 99.028 28.1334 100.029C27.889 101.029 27.9845 102.202 28.7254 102.916C29.0834 103.2 29.4557 103.465 29.8407 103.71C30.2455 104.062 30.6013 104.467 30.8986 104.914L33.0031 107.79C33.9929 109.066 34.8744 110.423 35.6385 111.846C36.1655 112.888 36.5704 114.004 37.2693 114.936C37.9683 115.867 39.0644 116.616 40.2255 116.513C40.3152 116.516 40.4043 116.497 40.4854 116.459C40.5665 116.42 40.6371 116.363 40.6914 116.291C40.7371 116.2 40.7582 116.099 40.7526 115.997C40.8001 114.449 40.6081 112.903 40.1835 111.414C39.949 110.726 39.7701 110.019 39.6488 109.302C39.56 108.372 39.7501 107.436 40.195 106.615C40.6398 105.793 41.3192 105.122 42.1466 104.688C44.0181 103.745 46.3861 104.142 48.1812 103.061C49.5752 102.217 50.3353 100.655 51.0228 99.1769C51.7866 97.5614 52.1953 96.1635 53.7651 95.2545C55.3348 94.3455 55.5029 92.8368 54.7275 91.29Z" fill="#585268"/>
<path opacity="0.1" d="M49.0177 299.628C49.0177 299.628 50.9579 302.11 50.4614 303.516C49.9648 304.921 49.0177 299.628 49.0177 299.628ZM75.3979 305.834C75.3979 305.834 75.8295 302.504 77.5673 302.473C79.3051 302.442 79.3891 302.294 80.7144 302.801C82.0397 303.309 83.281 304.104 82.8876 304.226C82.4942 304.348 80.596 302.316 78.6863 303.351C77.4731 304.011 76.3648 304.848 75.3979 305.834V305.834ZM43.2008 129.151L48.6395 125.332C48.6395 125.332 40.6533 120.611 39.7023 121.276C38.7513 121.94 38.0981 127.898 38.0981 127.898L43.2008 129.151Z" fill="black"/>
<path d="M43.1779 128.903L48.6395 124.992C48.6395 124.992 40.6533 120.275 39.7023 120.936C38.7513 121.596 38.0981 127.891 38.0981 127.891L43.1779 128.903Z" fill="#E1E7EF"/>
<path opacity="0.03" d="M43.1779 128.903L48.6395 124.992C48.6395 124.992 40.6533 120.275 39.7023 120.936C38.7513 121.596 38.0981 127.891 38.0981 127.891L43.1779 128.903Z" fill="black"/>
<path d="M40.6034 120.982L40.4392 120.898C40.1963 120.774 39.9227 120.723 39.6515 120.751C39.3803 120.78 39.1233 120.886 38.9114 121.058L22.5341 134.345C22.5341 134.345 18.9744 139.269 19.4786 147.767L29.1339 161.451C29.1339 161.451 30.2377 156.815 31.563 157.697C31.563 157.697 33.4383 181.423 31.563 184.845C29.6877 188.267 28.8589 201.066 28.8589 201.066L35.2028 201.784C35.2028 201.784 35.8636 193.121 37.3531 190.031C38.8427 186.942 39.6447 176.324 39.6447 176.324C39.6447 176.324 40.9853 160.898 40.7638 154.271C40.5423 147.644 38.6135 133.417 38.6135 133.417C38.6135 133.417 39.152 125.076 40.6034 120.982V120.982Z" fill="#67647E"/>
<path opacity="0.1" d="M56.916 126.73L50.1138 124.209C50.1138 124.209 58.7799 114.722 59.8569 119.985L56.916 126.73Z" fill="black"/>
<path d="M56.916 126.39L50.1138 123.873C50.1138 123.873 58.7799 114.382 59.8569 119.645L56.916 126.39Z" fill="#E1E7EF"/>
<path opacity="0.03" d="M56.916 126.39L50.1138 123.873C50.1138 123.873 58.7799 114.382 59.8569 119.645L56.916 126.39Z" fill="black"/>
<path opacity="0.1" d="M56.6982 118.327C56.7951 118.31 56.895 118.33 56.9771 118.384L56.6982 118.327Z" fill="black"/>
<path d="M57.3589 117.663L75.4168 121.558C75.4168 121.558 80.3819 122.662 83.9683 135.128C87.5546 147.595 79.0566 162.876 79.0566 162.876L77.1813 161.283L78.1208 197.701C78.1208 197.701 69.787 200.844 67.1402 198.083C64.4934 195.321 64.7646 182.423 64.7646 182.423C64.7646 182.423 62.2286 158.579 60.6244 154.653C59.0203 150.727 59.8606 122.483 59.8606 122.483C59.8606 122.483 58.3672 117.445 57.3589 117.663V117.663Z" fill="#67647E"/>
<path opacity="0.1" d="M73.8699 140.869C73.614 141.106 73.3199 152.124 74.4237 160.512C75.101 165.62 76.1464 170.672 77.5517 175.629L75.9132 142.019C75.9132 142.019 74.6414 140.139 73.8699 140.869ZM71.6623 131.378C72.1054 131.653 74.0379 136.232 73.1519 138.111C72.2658 139.99 71.6623 131.378 71.6623 131.378ZM54.6204 91.29C53.736 89.544 52.3555 88.0984 50.6521 87.1345C51.9167 88.0364 52.9388 89.2369 53.6274 90.6292C54.3912 92.1761 54.1774 93.7267 52.6611 94.6052C51.1448 95.4836 50.6712 96.8968 49.9226 98.5276C49.2351 100.006 48.4713 101.583 47.0772 102.408C45.2821 103.493 42.9179 103.096 41.0464 104.035C40.2188 104.47 39.5392 105.141 39.0944 105.964C38.6495 106.786 38.4595 107.722 38.5486 108.653C38.6682 109.37 38.847 110.077 39.0833 110.765C39.5072 112.254 39.6979 113.8 39.6486 115.348C39.6552 115.449 39.6354 115.551 39.5913 115.642C39.537 115.714 39.4663 115.771 39.3852 115.81C39.3042 115.848 39.215 115.867 39.1253 115.864C38.6578 115.9 38.1889 115.813 37.7656 115.612C38.0743 115.917 38.4424 116.155 38.8471 116.312C39.2518 116.47 39.6846 116.542 40.1183 116.524C40.2081 116.527 40.2972 116.509 40.3783 116.47C40.4593 116.432 40.53 116.374 40.5843 116.303C40.6282 116.211 40.6492 116.11 40.6454 116.009C40.691 114.461 40.4991 112.915 40.0763 111.426C39.84 110.738 39.6612 110.031 39.5416 109.313C39.4528 108.383 39.643 107.448 40.0878 106.626C40.5327 105.804 41.2121 105.134 42.0395 104.7C43.911 103.756 46.2751 104.154 48.0702 103.073C49.4643 102.229 50.2281 100.666 50.9156 99.1884C51.6795 97.5728 52.0843 96.1749 53.6541 95.2659C55.2239 94.3569 55.3919 92.8368 54.6204 91.29V91.29Z" fill="black"/>
<path opacity="0.1" d="M369.8 293.081C378.449 293.081 385.46 292.119 385.46 290.931C385.46 289.743 378.449 288.781 369.8 288.781C361.152 288.781 354.141 289.743 354.141 290.931C354.141 292.119 361.152 293.081 369.8 293.081Z" fill="#00C7FA"/>
<path opacity="0.1" d="M247.043 312.636C253.189 312.636 258.172 311.952 258.172 311.109C258.172 310.265 253.189 309.581 247.043 309.581C240.896 309.581 235.913 310.265 235.913 311.109C235.913 311.952 240.896 312.636 247.043 312.636Z" fill="#00C7FA"/>
<path opacity="0.1" d="M147.457 301.312C153.604 301.312 158.587 300.628 158.587 299.784C158.587 298.94 153.604 298.256 147.457 298.256C141.311 298.256 136.328 298.94 136.328 299.784C136.328 300.628 141.311 301.312 147.457 301.312Z" fill="#00C7FA"/>
<path d="M153.588 296.309C154.289 295.737 154.799 294.966 155.05 294.097C155.241 293.223 154.867 292.168 154.027 291.848C153.087 291.489 152.083 292.142 151.323 292.799C150.563 293.456 149.688 294.208 148.695 294.067C149.207 293.602 149.59 293.012 149.806 292.356C150.023 291.699 150.067 290.998 149.932 290.32C149.887 290.039 149.769 289.776 149.589 289.556C149.065 288.998 148.118 289.239 147.496 289.678C145.51 291.072 144.956 293.773 144.944 296.198C144.746 295.323 144.914 294.41 144.906 293.524C144.899 292.638 144.658 291.615 143.898 291.149C143.431 290.89 142.904 290.758 142.37 290.767C141.48 290.732 140.483 290.824 139.876 291.477C139.112 292.287 139.315 293.647 139.972 294.533C140.629 295.419 141.633 295.988 142.557 296.603C143.297 297.044 143.927 297.645 144.402 298.363C144.459 298.464 144.505 298.57 144.54 298.68H150.139C151.389 298.047 152.549 297.249 153.588 296.309V296.309ZM376.152 288.25C376.858 287.68 377.373 286.908 377.63 286.038C377.821 285.164 377.447 284.129 376.607 283.789C375.667 283.43 374.663 284.083 373.903 284.74C373.143 285.397 372.268 286.149 371.271 286.008C371.784 285.544 372.168 284.955 372.385 284.298C372.602 283.641 372.645 282.939 372.509 282.261C372.467 281.979 372.348 281.715 372.165 281.497C371.645 280.94 370.698 281.18 370.076 281.619C368.09 283.013 367.536 285.714 367.524 288.139C367.322 287.264 367.494 286.352 367.486 285.465C367.479 284.579 367.234 283.556 366.478 283.09C366.011 282.831 365.484 282.7 364.95 282.708C364.056 282.674 363.063 282.765 362.452 283.418C361.688 284.228 361.891 285.588 362.552 286.474C363.212 287.36 364.213 287.929 365.137 288.544C365.877 288.985 366.507 289.587 366.982 290.305C367.038 290.406 367.084 290.512 367.12 290.622H372.715C373.961 289.988 375.117 289.19 376.152 288.25V288.25ZM250.064 306.105C250.765 305.533 251.276 304.762 251.531 303.894C251.718 303.015 251.344 301.984 250.507 301.644C249.568 301.285 248.563 301.934 247.803 302.595C247.043 303.256 246.168 304.001 245.172 303.863C245.684 303.399 246.068 302.81 246.285 302.153C246.502 301.496 246.544 300.795 246.409 300.116C246.366 299.835 246.247 299.571 246.065 299.353C245.542 298.795 244.599 299.036 243.972 299.475C241.986 300.873 241.432 303.569 241.421 305.998C241.222 305.124 241.39 304.211 241.387 303.325C241.383 302.439 241.135 301.415 240.378 300.949C239.911 300.692 239.384 300.56 238.851 300.567C237.957 300.537 236.964 300.624 236.353 301.278C235.589 302.091 235.791 303.451 236.452 304.333C237.113 305.215 238.113 305.784 239.034 306.403C239.783 306.849 240.421 307.461 240.898 308.191C240.953 308.291 240.999 308.396 241.035 308.504H246.627C247.876 307.863 249.032 307.056 250.064 306.105V306.105Z" fill="#00C7FA"/>
<path d="M362.299 131.828C357.288 131.729 352.865 128.177 350.36 123.869C349.703 122.84 349.291 121.675 349.153 120.462C349.17 120.186 349.216 119.912 349.29 119.645C349.451 119.241 349.579 118.824 349.672 118.4C349.693 118.23 349.693 118.058 349.672 117.888V117.865C349.794 116.941 349.252 116.051 348.572 115.413C347.892 114.775 347.064 114.313 346.365 113.698C344.211 111.807 343.557 108.775 343.515 105.888V105.735C343.538 104.501 343.638 103.26 343.626 102.022C343.643 101.32 343.613 100.616 343.535 99.9179C343.328 98.1686 342.664 96.3888 341.289 95.2735C337.702 92.367 331.672 95.392 327.963 92.642C327.058 91.9736 326.328 90.9768 325.236 90.7323C324.407 90.5337 323.548 90.8011 322.742 91.0684C320.007 91.9698 316.96 93.1576 315.89 95.8159C315.279 97.3436 315.451 99.0585 314.889 100.594C314.508 101.621 313.832 102.504 313.327 103.481C312.912 104.214 312.709 105.049 312.743 105.891C312.701 106.327 312.762 106.767 312.923 107.175C313.111 107.661 313.415 108.095 313.809 108.439C313.665 108.742 313.485 109.026 313.274 109.287C312.575 110.142 311.502 110.753 310.776 111.578C309.432 113.137 309.481 115.256 310.146 117.09C310.81 118.923 312.002 120.592 312.819 122.376C313.175 123.139 313.461 124.018 313.091 124.789C312.835 125.324 312.3 125.729 311.884 126.191C311.274 126.875 310.892 127.732 310.791 128.643C302.606 130.511 302.603 137.084 302.603 137.084L298.187 148.213C298.187 148.213 297.481 150.085 296.66 152.556L291.427 151.62L295.04 157.708C294.349 160.187 293.864 162.486 294.024 163.64C294.024 163.64 292.401 171.278 295.289 172.611L301.667 175.48C301.942 175.647 302.239 175.775 302.549 175.862L302.809 175.976C302.902 176.022 303.004 176.045 303.107 176.045C303.21 176.045 303.312 176.022 303.405 175.976H303.508C303.638 175.989 303.769 175.971 303.89 175.923C304.033 175.848 304.145 175.725 304.207 175.575C304.208 175.564 304.208 175.552 304.207 175.541L306.116 174.987L307.736 176.897C308.465 177.409 309.18 177.855 309.879 178.256L307.388 203.159C307.388 203.159 306.983 236.257 305.765 243.793C305.311 246.585 305.307 248.487 305.479 249.781L305.433 249.865C305.735 251.993 306.517 252.413 306.517 252.413V252.382L306.563 252.413C306.932 251.447 307.37 250.509 307.873 249.606V250.148C307.85 252.959 307.763 256.889 307.491 259.444C306.995 263.791 308.756 278.19 308.756 278.19L309.363 291.29C309.461 293.512 308.946 295.719 307.873 297.668C306.433 300.285 304.558 303.963 304.436 305.593C304.43 305.682 304.43 305.772 304.436 305.861L301.243 309.577C301.243 309.577 300.021 311.46 302.771 312.22C304.249 312.632 306.804 312.22 308.851 311.735C309.746 311.529 310.545 311.027 311.118 310.309C311.691 309.591 312.004 308.7 312.006 307.782C312.533 305.977 313.419 304.298 314.611 302.843L315.126 305.857L318.564 306.709L319.003 298.447C319.181 297.983 319.262 297.486 319.24 296.988C319.916 291.114 317.647 291.641 317.647 291.641C317.705 291.697 317.743 291.769 317.758 291.848C317.72 291.783 317.681 291.714 317.647 291.645C316.253 288.895 316.937 284.388 316.937 284.388C316.937 284.388 318.743 271.296 319.377 267.839C319.824 265.399 319.641 257.401 319.492 252.921C319.492 252.734 319.492 252.539 319.473 252.382C324.793 252.314 331.313 252.13 335.896 251.687V252.23L335.048 283.166C334.991 285.137 334.592 287.084 333.868 288.918C333.868 288.953 333.837 288.987 333.826 289.021C332.812 291.606 332.234 294.341 332.115 297.114L331.733 306.945V307.217C331.049 307.48 329.972 308.24 329.942 310.444C329.896 313.671 335.583 312.594 335.583 312.594C341.27 312.594 341.312 306.674 341.312 306.674C341.312 306.674 341.495 301.247 341.762 297.615C342.03 293.983 340.907 294.785 340.907 294.785L340.823 305.097V305.177V296.121L340.911 294.808V294.769L340.93 294.491L341.636 283.835C341.636 283.835 346.873 266.075 347.686 262.668C348.263 260.25 348.022 252.955 347.831 248.918C347.831 248.731 347.831 248.555 347.808 248.383C349.428 248.238 350.864 248.223 351.441 248.223H351.704C351.704 248.223 351.433 219.7 350.757 208.937C350.081 198.174 348.996 188.351 346.285 185.391C344.65 183.604 342.37 178.081 340.819 173.99C344.053 175.391 347.409 176.49 350.845 177.275C359.423 179.07 358.251 171.622 358.251 171.622L357.38 157.54H357.437C357.406 153.851 357.089 150.17 356.49 146.529C356.039 143.737 355.344 140.85 354.282 138.509C355.214 138.153 356.131 137.745 357.032 137.363C359.362 136.335 361.997 134.876 362.326 132.363H362.211C362.254 132.188 362.284 132.009 362.299 131.828V131.828ZM309.126 152.201C309.149 153.656 309.092 156.177 309.008 158.969L306.285 155.333L309.015 150.902L309.126 152.201ZM346.77 165.076L342.232 163.617C343.038 162.362 343.978 161.199 345.036 160.149L345.418 159.767L345.276 159.798L345.498 159.599L345.628 159.568L345.418 159.767L345.666 159.717C345.94 160.857 346.469 161.92 347.213 162.826C348.832 164.629 346.754 165.076 346.754 165.076H346.77Z" fill="url(#paint4_linear_223_286)"/>
<path d="M319.19 295.98L318.656 306.04L315.272 305.196L314.558 301.01L319.19 295.98Z" fill="#A27772"/>
<path opacity="0.1" d="M319.19 295.98L318.656 306.04L315.272 305.196L314.558 301.01L319.19 295.98Z" fill="black"/>
<path d="M331.611 307.377L336.775 308.446L340.594 305.063V295.533L340.678 294.231V294.193L340.697 293.918L341.392 283.338C341.392 283.338 346.556 265.704 347.358 262.332C347.927 259.929 347.69 252.684 347.503 248.681C347.427 247.039 347.358 245.943 347.358 245.943L335.961 243.182L335.72 251.966L334.888 282.674C334.831 284.63 334.436 286.562 333.719 288.383L333.681 288.487C332.688 291.059 332.13 293.778 332.027 296.534L331.645 306.292V306.564L331.611 307.377Z" fill="#CC818C"/>
<path opacity="0.1" d="M340.693 293.921V294.193L340.712 293.918L340.693 293.921ZM331.611 307.377L336.775 308.446L340.594 305.063V304.253C340.582 304.433 340.526 304.607 340.43 304.76C340.334 304.913 340.201 305.039 340.044 305.127L339.99 305.158C338.212 306.1 336.196 306.498 334.193 306.304L332.176 306.132C331.994 306.152 331.816 306.196 331.645 306.262V306.533L331.611 307.377Z" fill="black"/>
<path d="M340.002 305.425L340.055 305.395C340.224 305.301 340.364 305.163 340.461 304.997C340.559 304.83 340.61 304.641 340.609 304.448L340.693 294.189C340.693 294.189 341.808 293.398 341.541 297.004C341.273 300.609 341.094 305.998 341.094 305.998C341.094 305.998 341.052 311.876 335.441 311.876C335.441 311.876 329.831 312.942 329.873 309.737C329.915 306.533 332.191 306.399 332.191 306.399L334.204 306.575C336.207 306.766 338.223 306.366 340.002 305.425V305.425Z" fill="#B07473"/>
<path d="M304.719 305.196C304.852 307.511 311.662 306.174 311.662 306.174L316.245 297.271C316.245 297.271 320.065 294.33 318.155 291.748C318.051 291.608 317.957 291.462 317.872 291.309V291.286C317.83 291.217 317.796 291.149 317.758 291.076C316.383 288.349 317.059 283.877 317.059 283.877C317.059 283.877 318.839 270.891 319.465 267.453C319.904 265.028 319.725 257.088 319.576 252.642C319.519 250.797 319.465 249.552 319.465 249.552L308.152 246.527V249.9C308.129 252.688 308.045 256.591 307.77 259.127C307.281 263.447 309.019 277.739 309.019 277.739L309.619 290.748C309.704 292.95 309.185 295.133 308.118 297.061C306.697 299.658 304.848 303.313 304.719 304.933C304.711 305.02 304.711 305.109 304.719 305.196V305.196Z" fill="#CC818C"/>
<path opacity="0.1" d="M304.719 305.196C304.852 307.511 311.662 306.174 311.662 306.174L316.246 297.271C316.246 297.271 320.065 294.33 318.155 291.748C318.051 291.608 317.957 291.462 317.873 291.309C317.811 292.657 316.345 296.022 316.345 296.022C316.345 296.022 312.56 303.596 311.38 305.33C310.2 307.064 304.944 305.009 304.749 304.948C304.732 305.03 304.722 305.113 304.719 305.196V305.196Z" fill="black"/>
<path d="M317.75 291.068C317.75 291.068 319.988 290.549 319.324 296.381C319.348 297.044 319.197 297.702 318.885 298.287C318.573 298.873 318.112 299.366 317.548 299.715C315.947 300.724 313.473 302.889 312.224 307.102C312.225 308.012 311.918 308.895 311.354 309.609C310.789 310.322 310 310.824 309.115 311.032C307.094 311.502 304.573 311.918 303.114 311.51C300.399 310.746 301.587 308.886 301.587 308.886L304.703 305.189C304.703 305.189 310.134 307.327 311.338 305.59C312.541 303.852 316.303 296.282 316.303 296.282C316.303 296.282 318.43 291.557 317.75 291.068V291.068Z" fill="#B07473"/>
<path opacity="0.1" d="M335.976 244.239L335.736 253.024C338.791 252.73 340.945 252.317 341.32 251.741C342.118 250.499 345.036 249.972 347.519 249.758C347.442 248.116 347.373 247.02 347.373 247.02L335.976 244.239ZM308.141 250.954C308.434 250.362 308.862 249.846 309.39 249.449C310.593 248.781 310.463 253.723 310.463 253.723C310.463 253.723 314.455 253.761 319.569 253.696C319.511 251.848 319.458 250.606 319.458 250.606L308.145 247.581C308.145 247.581 308.16 248.991 308.141 250.954Z" fill="black"/>
<path d="M306.854 252.13C306.854 252.13 308.191 248.513 309.39 247.849C310.589 247.184 310.463 252.123 310.463 252.123C310.463 252.123 339.849 252.39 341.32 250.117C342.79 247.845 351.338 247.982 351.338 247.982C351.338 247.982 351.071 219.662 350.402 208.975C349.734 198.289 348.664 188.538 345.995 185.601C344.264 183.691 341.793 177.546 340.289 173.444C339.46 171.202 338.914 169.571 338.914 169.571L310.864 171.175L310.635 173.444L307.656 203.235C307.656 203.235 307.274 236.081 306.052 243.575C304.83 251.068 306.854 252.13 306.854 252.13V252.13Z" fill="#444053"/>
<g opacity="0.1">
<path opacity="0.1" d="M339.055 250.137C340.521 247.868 349.073 248.002 349.073 248.002C349.073 248.002 348.805 219.681 348.137 208.995C347.469 198.308 346.399 188.557 343.73 185.62C341.999 183.71 339.528 177.565 338.023 173.463C337.328 171.58 336.832 170.129 336.69 169.713L338.868 169.59C338.868 169.59 339.414 171.221 340.242 173.463C341.77 177.565 344.218 183.718 345.949 185.62C348.622 188.557 349.688 198.308 350.356 208.995C351.024 219.681 351.277 247.982 351.277 247.982C351.277 247.982 342.729 247.845 341.262 250.137C340.006 252.077 318.381 252.165 312.102 252.149C320.153 252.111 337.909 251.87 339.055 250.137ZM307.113 247.845C307.656 247.543 307.927 248.38 308.061 249.373C307.576 250.254 307.154 251.167 306.796 252.107C306.796 252.107 306.033 251.691 305.727 249.579C306.151 248.826 306.644 248.108 307.113 247.845V247.845Z" fill="black"/>
</g>
<path d="M315.52 101.052C313.58 103.703 315.543 107.465 313.461 110.039C312.774 110.891 311.716 111.498 310.998 112.331C309.669 113.881 309.722 115.982 310.375 117.804C311.029 119.626 312.209 121.279 313.018 123.052C313.37 123.816 313.652 124.683 313.29 125.446C313.037 125.977 312.526 126.378 312.098 126.84C310.761 128.334 310.723 130.412 311.441 132.168C312.159 133.925 313.538 135.449 314.878 136.931C315.413 137.519 316.089 138.165 316.979 138.15C317.448 138.111 317.901 137.962 318.301 137.714C321.469 136.046 323.872 133.221 325.011 129.827C325.974 126.634 325.771 123.203 324.438 120.145C323.292 117.445 321.429 114.855 321.413 111.998C321.413 109.734 322.578 107.572 322.784 105.315C323.037 102.576 321.413 98.2221 318.106 97.0266C318.323 98.795 316.521 99.7078 315.52 101.052V101.052Z" fill="#585268"/>
<path opacity="0.1" d="M315.52 101.052C313.58 103.703 315.543 107.465 313.461 110.039C312.774 110.891 311.716 111.498 310.998 112.331C309.669 113.881 309.722 115.982 310.375 117.804C311.029 119.626 312.209 121.279 313.018 123.052C313.37 123.816 313.652 124.683 313.29 125.446C313.038 125.977 312.526 126.378 312.098 126.84C310.761 128.334 310.723 130.412 311.441 132.168C312.159 133.925 313.538 135.449 314.878 136.931C315.413 137.519 316.089 138.165 316.979 138.15C317.448 138.111 317.901 137.962 318.301 137.714C321.469 136.046 323.872 133.221 325.011 129.827C325.974 126.634 325.771 123.203 324.438 120.145C323.292 117.445 321.429 114.855 321.413 111.998C321.413 109.734 322.578 107.572 322.784 105.315C323.037 102.576 321.413 98.2221 318.106 97.0266C318.323 98.795 316.521 99.7078 315.52 101.052V101.052ZM337.057 197.346C333.169 197.552 329.51 199.221 326.107 201.111C322.704 203.002 319.412 205.16 315.749 206.489L337.057 197.346ZM334.64 206.504C330.793 206.873 327.208 208.616 324.541 211.412C323.598 212.413 322.784 213.536 321.799 214.494C320.288 215.962 318.424 217.015 316.387 217.55L334.64 206.504ZM335.438 213.471C332.337 214.331 329.531 216.023 327.322 218.363C326.726 219.005 326.176 219.696 325.588 220.334C322.368 223.772 317.823 225.624 313.435 227.358" fill="black"/>
<path d="M335.106 116.807C335.193 119.914 335.46 123.013 335.908 126.088C336.267 128.28 336.778 130.232 337.512 131.099C339.647 133.639 327.093 137.046 327.093 137.046L319.679 131.317C319.679 131.317 325.557 125.905 322.819 120.623C320.08 115.34 335.106 116.807 335.106 116.807V116.807Z" fill="#CC818C"/>
<path opacity="0.1" d="M310.635 173.444H340.288C339.459 171.202 338.913 169.571 338.913 169.571L310.864 171.175L310.635 173.444Z" fill="black"/>
<path d="M308.725 172.909H340.426C339.536 169.724 340.426 166.772 341.698 164.507C342.586 162.916 343.705 161.464 345.017 160.199L345.234 160.004L356.311 157.548L356.906 157.418C356.906 157.418 356.994 137.294 349.871 134.533C342.748 131.771 338.47 128.04 338.47 128.04L328.678 131.065L321.463 127.417C319.148 129.911 313.003 128.945 313.003 128.945C302.939 130.091 302.939 137.672 302.939 137.672C302.939 137.672 308.817 151.387 309.264 151.387C309.711 151.387 308.725 172.909 308.725 172.909V172.909Z" fill="#67647E"/>
<path opacity="0.1" d="M319.671 160.115C319.671 160.115 313.205 158.682 311.005 156.177L319.671 160.115ZM352.27 152.606L344.784 158.751C344.838 159.237 344.921 159.719 345.032 160.195L345.25 160L356.326 157.544L352.27 152.606ZM331.966 170.774C331.966 170.774 333.608 171.699 336.121 172.909H340.43C339.54 169.724 340.43 166.772 341.701 164.507L334.09 162.043C336.687 164.45 331.966 170.774 331.966 170.774V170.774Z" fill="black"/>
<path d="M307.388 135.243L302.935 137.645L298.569 148.687C298.569 148.687 294.028 160.798 294.471 164.006C294.471 164.006 292.871 171.573 295.72 172.909L303.153 176.27C303.284 176.33 303.43 176.347 303.571 176.319C303.712 176.291 303.841 176.219 303.939 176.114C304.037 176.009 304.1 175.876 304.118 175.733C304.137 175.591 304.111 175.446 304.043 175.319C302.985 173.314 301.824 170.182 303.661 168.445L301.522 163.995L309.264 151.361L311.842 147.014L307.388 135.243Z" fill="#67647E"/>
<path opacity="0.1" d="M317.284 157.586C317.666 159.16 318.973 161.577 323.281 162.49L328.024 166.363L333.054 168.655L335.102 169.583L335.972 163.304L333.998 162.223L331.706 160.966C331.706 160.966 326.516 151.555 318.293 155.531C317.915 155.707 317.609 156.007 317.426 156.381C317.242 156.755 317.192 157.18 317.284 157.586V157.586Z" fill="black"/>
<path d="M317.556 157.051C317.938 158.625 319.244 161.043 323.552 161.955L328.296 165.832L333.326 168.124L335.373 169.052L336.244 162.773L334.269 161.696L331.977 160.435C331.977 160.435 326.787 151.028 318.564 155C318.187 155.176 317.882 155.475 317.698 155.848C317.515 156.221 317.464 156.646 317.556 157.051V157.051Z" fill="#CC818C"/>
<path opacity="0.1" d="M326.822 124.958C333.167 124.958 338.31 119.814 338.31 113.469C338.31 107.124 333.167 101.98 326.822 101.98C320.477 101.98 315.333 107.124 315.333 113.469C315.333 119.814 320.477 124.958 326.822 124.958Z" fill="black"/>
<path d="M326.822 124.69C333.167 124.69 338.31 119.547 338.31 113.202C338.31 106.857 333.167 101.713 326.822 101.713C320.477 101.713 315.333 106.857 315.333 113.202C315.333 119.547 320.477 124.69 326.822 124.69Z" fill="#CC818C"/>
<path opacity="0.1" d="M333.937 137.745L330.5 131.03C330.5 131.03 335.556 128.991 335.923 126.623C336.29 124.255 340.766 129.396 339.796 131.099C338.826 132.802 333.937 137.745 333.937 137.745Z" fill="black"/>
<path d="M333.937 137.21L330.5 130.496C330.5 130.496 335.556 128.456 335.923 126.088C336.29 123.72 340.766 128.865 339.796 130.564C338.826 132.264 333.937 137.21 333.937 137.21Z" fill="#67647E"/>
<path d="M305.67 154.55L324.767 180.212C324.767 180.212 317.731 184.031 308.022 177.183L303.821 172.199L291.886 152.071L305.67 154.55Z" fill="#F6F8FB"/>
<path d="M301.912 168.502L303.65 168.456C303.65 168.456 314.267 158.144 316.872 163.361C319.477 168.578 310.261 173.444 310.261 173.444L307.457 174.972L303.783 176.041L301.446 172.902L301.912 168.502Z" fill="#CC818C"/>
<path opacity="0.1" d="M304.474 174.07C304.635 174.662 304.787 175.316 304.52 175.866C304.458 176.014 304.346 176.136 304.203 176.209C304.082 176.26 303.951 176.278 303.821 176.263C302.901 176.184 302.046 175.76 301.426 175.075C300.815 174.395 300.293 173.641 299.872 172.829C299.398 172.008 298.906 171.091 299.077 170.156C299.265 169.132 300.177 168.422 301.048 167.864C302.809 166.699 302.851 168.055 303.252 169.552L304.474 174.07Z" fill="black"/>
<path d="M304.207 174.07C304.368 174.662 304.52 175.316 304.253 175.866C304.191 176.014 304.079 176.136 303.936 176.209C303.815 176.26 303.684 176.278 303.554 176.263C302.634 176.184 301.778 175.76 301.159 175.075C300.548 174.395 300.026 173.641 299.605 172.829C299.131 172.008 298.639 171.091 298.81 170.156C298.998 169.132 299.91 168.422 300.781 167.864C302.542 166.699 302.584 168.055 302.985 169.552L304.207 174.07Z" fill="#67647E"/>
<path opacity="0.1" d="M309.26 151.361L310.15 149.86L309.371 152.648L309.26 151.361V151.361ZM333.325 168.108L335.373 169.037L336.243 162.758L334.269 161.68C335.617 163.231 334.437 166.111 333.325 168.108ZM341.541 160.821C341.541 160.821 334.93 161.222 332.126 159.419Z" fill="black"/>
<g opacity="0.1">
<path opacity="0.1" d="M340.72 165.038C341.611 163.447 342.73 161.995 344.043 160.729C344.358 160.532 344.684 160.353 345.021 160.195L355.333 158.079L355.929 157.949C355.929 157.949 356.02 137.825 348.893 135.063C344.899 133.54 341.155 131.43 337.783 128.804L338.566 128.563C338.566 128.563 342.84 132.302 349.963 135.056C357.086 137.81 357.006 157.949 357.006 157.949H355.936L345.38 159.969L344.784 160.539C343.46 161.862 342.325 163.362 341.411 164.996C340.018 167.586 339.701 170.621 340.529 173.444H339.437C338.558 170.259 339.463 167.306 340.72 165.038ZM312.575 129.522C312.747 129.499 312.911 129.472 313.087 129.453C313.81 129.555 314.538 129.615 315.268 129.632C314.369 129.657 313.469 129.62 312.575 129.522V129.522ZM327.692 131.588L321.169 128.299C321.304 128.193 321.432 128.077 321.551 127.952L328.357 131.389L327.692 131.588Z" fill="black"/>
</g>
<path d="M352.537 152.071L356.903 157.418L357.792 171.932C357.792 171.932 358.938 179.322 350.49 177.542C342.041 175.762 332.233 170.24 332.233 170.24C332.233 170.24 336.954 163.915 334.372 161.512L346.483 165.431C346.483 165.431 348.531 164.984 346.926 163.204C345.322 161.425 345.04 158.216 345.04 158.216L352.537 152.071Z" fill="#67647E"/>
<path opacity="0.1" d="M354.496 167.39L356.902 170.148C356.284 169.959 355.731 169.6 355.305 169.113C354.88 168.626 354.6 168.029 354.496 167.39V167.39ZM350.402 166.944L354.141 171.752L352.273 172.199L350.402 166.944ZM313.106 107.927C312.693 106.923 313.007 105.761 313.488 104.795C313.969 103.829 314.66 102.95 315.016 101.927C315.569 100.399 315.398 98.688 316.001 97.1832C317.059 94.5479 320.065 93.3639 322.761 92.474C323.556 92.2104 324.404 91.9431 325.221 92.1379C326.298 92.3976 327.02 93.3868 327.894 94.0475C331.553 96.7746 337.5 93.7726 341.037 96.66C342.393 97.7638 343.05 99.5359 343.252 101.27C343.454 103.004 343.252 104.765 343.233 106.514C343.176 109.569 343.745 112.923 346.04 114.951C346.731 115.562 347.545 116.024 348.217 116.654C348.889 117.284 349.42 118.182 349.302 119.087C349.207 119.508 349.079 119.92 348.92 120.321C348.462 121.917 349.141 123.609 349.97 125.049C352.445 129.327 356.803 132.852 361.749 132.951C361.417 135.445 358.827 136.893 356.528 137.917C353.599 139.219 350.52 140.498 347.32 140.334C344.119 140.17 340.781 138.123 340.212 134.987C340.017 133.906 340.044 132.581 339.104 132.012C338.539 131.668 337.806 131.756 337.195 131.496C336.312 131.114 335.873 130.144 335.583 129.228C334.986 127.343 334.666 125.383 334.632 123.407C334.594 121.066 334.907 118.51 333.578 116.582C332.348 114.798 330.163 113.908 328.746 112.251C327.44 110.723 326.015 108.897 323.873 108.607C320.993 108.191 314.859 112.22 313.106 107.927V107.927Z" fill="black"/>
<path d="M313.106 107.392C312.693 106.388 313.007 105.227 313.488 104.26C313.969 103.294 314.66 102.416 315.016 101.392C315.569 99.8644 315.398 98.1533 316.001 96.6485C317.059 94.0132 320.065 92.8292 322.761 91.9393C323.556 91.6757 324.404 91.4084 325.221 91.6031C326.298 91.8629 327.02 92.8521 327.894 93.5128C331.553 96.2437 337.5 93.2378 341.037 96.1253C342.393 97.2329 343.05 99.0012 343.252 100.735C343.454 102.469 343.252 104.23 343.233 105.979C343.176 109.035 343.745 112.388 346.04 114.416C346.731 115.027 347.545 115.489 348.217 116.12C348.889 116.75 349.42 117.647 349.302 118.552C349.206 118.974 349.079 119.388 348.92 119.79C348.462 121.383 349.141 123.078 349.97 124.514C352.445 128.792 356.803 132.317 361.749 132.417C361.417 134.911 358.827 136.358 356.528 137.382C353.599 138.688 350.52 139.964 347.32 139.799C344.119 139.635 340.781 137.588 340.212 134.433C340.017 133.352 340.044 132.027 339.104 131.458C338.539 131.114 337.806 131.202 337.195 130.942C336.312 130.56 335.873 129.59 335.583 128.674C334.986 126.79 334.666 124.829 334.632 122.853C334.594 120.512 334.907 117.957 333.578 116.028C332.348 114.244 330.163 113.354 328.746 111.697C327.44 110.169 326.015 108.343 323.873 108.053C320.993 107.675 314.859 111.685 313.106 107.392V107.392Z" fill="#585268"/>
<path opacity="0.1" d="M321.249 136.912L327.834 131.565C327.834 131.565 323.327 129.121 322.788 127.035C322.25 124.95 318.644 128.024 319.011 129.896C319.378 131.767 321.249 136.912 321.249 136.912Z" fill="black"/>
<path d="M321.516 136.11L328.101 130.763C328.101 130.763 323.594 128.319 323.055 126.233C322.517 124.148 318.911 127.222 319.278 129.094C319.645 130.965 321.516 136.11 321.516 136.11Z" fill="#67647E"/>
<path opacity="0.1" d="M328.357 135.762C328.646 135.762 328.88 135.528 328.88 135.239C328.88 134.95 328.646 134.716 328.357 134.716C328.068 134.716 327.833 134.95 327.833 135.239C327.833 135.528 328.068 135.762 328.357 135.762Z" fill="black"/>
<path opacity="0.1" d="M328.357 138.673C328.646 138.673 328.88 138.439 328.88 138.15C328.88 137.861 328.646 137.626 328.357 137.626C328.068 137.626 327.833 137.861 327.833 138.15C327.833 138.439 328.068 138.673 328.357 138.673Z" fill="black"/>
<path opacity="0.1" d="M328.357 141.579C328.646 141.579 328.88 141.345 328.88 141.056C328.88 140.767 328.646 140.533 328.357 140.533C328.068 140.533 327.833 140.767 327.833 141.056C327.833 141.345 328.068 141.579 328.357 141.579Z" fill="black"/>
<g opacity="0.1">
<path opacity="0.1" d="M315.757 99.9714C316.276 98.5391 316.165 96.935 316.651 95.4951C316.428 95.8144 316.242 96.1578 316.097 96.5187C315.493 98.0235 315.661 99.7422 315.111 101.266C315.111 101.293 315.085 101.323 315.073 101.354C315.343 100.915 315.572 100.452 315.757 99.9714V99.9714ZM357.307 135.961C354.378 137.267 351.3 138.543 348.095 138.379C344.891 138.214 341.56 136.167 340.991 133.013C340.796 131.932 340.823 130.606 339.884 130.037C339.318 129.694 338.585 129.781 337.974 129.522C337.088 129.14 336.652 128.17 336.362 127.253C335.765 125.366 335.445 123.403 335.411 121.425C335.373 119.083 335.682 116.528 334.357 114.599C333.127 112.816 330.943 111.926 329.526 110.268C328.216 108.741 326.795 106.915 324.648 106.625C321.707 106.243 315.57 110.253 313.82 105.96C313.54 105.149 313.58 104.261 313.931 103.478C313.805 103.691 313.683 103.905 313.572 104.123C313.076 105.089 312.762 106.25 313.19 107.255C314.943 111.548 321.077 107.518 324.022 107.919C326.165 108.21 327.589 110.047 328.899 111.563C330.316 113.205 332.497 114.111 333.727 115.898C335.056 117.808 334.747 120.382 334.785 122.719C334.816 124.697 335.135 126.659 335.732 128.544C336.022 129.457 336.461 130.454 337.344 130.813C337.955 131.068 338.688 130.984 339.253 131.328C340.189 131.893 340.166 133.238 340.357 134.3C340.926 137.454 344.264 139.505 347.465 139.67C350.666 139.834 353.748 138.554 356.673 137.248C358.782 136.312 361.131 135.01 361.761 132.879C360.737 134.281 358.95 135.232 357.307 135.961Z" fill="black"/>
</g>
</g>
<defs>
<linearGradient id="paint0_linear_223_286" x1="134.605" y1="121.131" x2="134.605" y2="51.8323" gradientUnits="userSpaceOnUse">
<stop stop-color="#808080" stop-opacity="0.25"/>
<stop offset="0.54" stop-color="#808080" stop-opacity="0.12"/>
<stop offset="1" stop-color="#808080" stop-opacity="0.1"/>
</linearGradient>
<linearGradient id="paint1_linear_223_286" x1="66630.2" y1="36094.2" x2="66630.2" y2="24969.1" gradientUnits="userSpaceOnUse">
<stop stop-color="#808080" stop-opacity="0.25"/>
<stop offset="0.54" stop-color="#808080" stop-opacity="0.12"/>
<stop offset="1" stop-color="#808080" stop-opacity="0.1"/>
</linearGradient>
<linearGradient id="paint2_linear_223_286" x1="80.1175" y1="131.34" x2="80.1175" y2="131.328" gradientUnits="userSpaceOnUse">
<stop stop-color="#808080" stop-opacity="0.25"/>
<stop offset="0.54" stop-color="#808080" stop-opacity="0.12"/>
<stop offset="1" stop-color="#808080" stop-opacity="0.1"/>
</linearGradient>
<linearGradient id="paint3_linear_223_286" x1="18020.9" y1="196878" x2="18020.9" y2="57770" gradientUnits="userSpaceOnUse">
<stop stop-color="#808080" stop-opacity="0.25"/>
<stop offset="0.54" stop-color="#808080" stop-opacity="0.12"/>
<stop offset="1" stop-color="#808080" stop-opacity="0.1"/>
</linearGradient>
<linearGradient id="paint4_linear_223_286" x1="67223.2" y1="188865" x2="67223.2" y2="59707.7" gradientUnits="userSpaceOnUse">
<stop stop-color="#808080" stop-opacity="0.25"/>
<stop offset="0.54" stop-color="#808080" stop-opacity="0.12"/>
<stop offset="1" stop-color="#808080" stop-opacity="0.1"/>
</linearGradient>
<clipPath id="clip0_223_286">
<rect width="390.895" height="320" fill="white"/>
</clipPath>
</defs>
</svg>
