<svg width="120" height="20" viewBox="0 0 120 20" fill="none" xmlns="http://www.w3.org/2000/svg">
<g clip-path="url(#clip0_229_195)">
<path d="M13.9835 0.439457C10.121 0.437457 6.09098 1.30746 2.02348 2.43596C1.50698 2.53996 1.00298 2.87796 0.736481 3.29596C0.491481 3.68996 0.402481 4.08546 0.325981 4.49996C-0.0690193 6.71396 -0.0210193 8.88796 0.0609807 11.297C0.0789807 11.8485 0.160981 12.502 0.418481 12.8995C0.687481 13.301 1.14848 13.556 1.69898 13.6395C2.40228 13.7426 3.10779 13.8301 3.81498 13.902L3.65898 18.251C3.63498 18.597 3.80398 18.8845 4.01398 19.05C4.20198 19.193 4.41148 19.2565 4.62648 19.2725C5.05648 19.305 5.56098 19.121 5.81148 18.644C6.90898 16.532 7.59748 15.5995 8.96998 14.1965C12.549 14.2845 15.6735 14.0855 19.211 13.824C20.4615 13.7915 21.32 12.769 21.547 11.9525C22.2255 9.83646 22.331 7.22446 22.403 4.58396C22.4335 3.53746 22.0705 2.50996 21.428 1.96696C20.817 1.47146 20.077 1.29196 19.399 1.10796C17.5155 0.681457 15.6315 0.452457 13.9835 0.439457ZM19.1285 2.09446C19.8075 2.27896 20.406 2.45646 20.7835 2.76296C21.4135 3.43246 21.3925 3.87796 21.3835 4.60046C21.3125 7.16146 21.1895 9.64696 20.6115 11.5305C20.3625 12.233 19.9285 12.733 19.1085 12.8085C15.5045 13.075 12.3775 13.281 8.75498 13.178C8.68445 13.1757 8.6142 13.1879 8.54858 13.2139C8.48296 13.2399 8.42336 13.279 8.37348 13.329C6.85148 14.866 6.07298 15.934 4.91298 18.167C4.88598 18.218 4.82748 18.249 4.75548 18.2545C4.70698 18.252 4.68748 18.2145 4.68448 18.1805L4.84148 13.4645C4.85098 13.21 4.64098 12.967 4.38798 12.9395C3.54204 12.8587 2.6984 12.7553 1.85798 12.6295C1.49498 12.574 1.36098 12.4745 1.26148 12.3265C1.08848 11.914 1.09248 11.659 1.07898 11.2625C0.997981 8.87496 0.957981 6.78846 1.32448 4.71246C1.35848 4.40546 1.47348 4.09146 1.59548 3.82896C1.79748 3.51296 2.10698 3.46646 2.41748 3.38046C6.39548 2.28196 10.2875 1.46046 13.9515 1.45796C15.7475 1.52296 17.6335 1.70296 19.1285 2.09446V2.09446ZM5.38898 6.13946C4.84098 6.79596 4.89548 7.68746 5.31898 8.28446C5.53998 8.59696 5.88498 8.84846 6.30498 8.90546C6.85048 8.95046 7.19648 8.72946 7.56998 8.47546C8.24648 7.88746 8.31498 6.86146 7.80048 6.12046C7.53848 5.74296 7.11948 5.51646 6.69148 5.50046C6.10548 5.50646 5.70748 5.76796 5.38898 6.13896V6.13946ZM11.317 5.60346C10.771 5.62096 10.3295 5.99896 10.06 6.40696C9.75148 6.87346 9.57148 7.45746 9.82098 8.02996C10.301 9.13146 11.9595 9.11796 12.621 7.99846C12.926 7.48246 12.848 6.89596 12.621 6.47046C12.395 6.04546 12.053 5.69896 11.5555 5.61946C11.4767 5.6065 11.3968 5.60114 11.317 5.60346V5.60346ZM16.1295 5.70696C15.9595 5.70296 15.7845 5.71896 15.6205 5.76246C14.9645 5.93746 14.406 6.61446 14.4905 7.48096C14.5335 7.91696 14.734 8.34196 15.0955 8.63496C15.457 8.92746 15.982 9.05846 16.5355 8.94496C17.1715 8.81496 17.5655 8.30246 17.697 7.80746C17.8285 7.31246 17.7955 6.80796 17.49 6.39896C17.331 6.18759 17.1259 6.01535 16.8901 5.89542C16.6544 5.77548 16.3944 5.71102 16.13 5.70696H16.1295ZM6.64698 6.51846C6.76948 6.51946 6.86598 6.55846 6.96548 6.70146C7.18798 7.02246 7.12598 7.50896 6.90148 7.70396C6.67798 7.89896 6.53848 7.91596 6.44048 7.90296C6.34248 7.88946 6.24298 7.82196 6.15398 7.69596C5.98398 7.45596 5.93398 7.06796 6.15748 6.79096C6.27648 6.63296 6.49498 6.53446 6.64748 6.51846H6.64698ZM11.3885 6.62996C11.4075 6.63296 11.6205 6.75646 11.7225 6.94796C11.8245 7.13946 11.8435 7.31746 11.7465 7.48096C11.458 7.96896 10.8445 7.83696 10.7515 7.62446C10.7165 7.54346 10.743 7.21796 10.9115 6.96446C11.079 6.70996 11.29 6.61446 11.3885 6.62946V6.62996ZM16.6705 7.00396C16.7015 7.04546 16.777 7.32396 16.7185 7.54496C16.6595 7.76596 16.5635 7.90246 16.3285 7.95046C16.0275 8.01246 15.8585 7.95046 15.732 7.84696C15.605 7.74446 15.5195 7.57096 15.501 7.38546C15.456 6.92546 15.621 6.81896 15.883 6.74896C16.188 6.67396 16.533 6.80496 16.6705 7.00396V7.00396Z" fill="#FF52C1"/>
<path d="M28.8049 2.49813C28.8129 2.36813 28.8604 2.25113 28.9484 2.14763C28.9913 2.09689 29.0451 2.05656 29.1058 2.02971C29.1665 2.00285 29.2326 1.99017 29.2989 1.99263H32.7119C32.8269 1.99263 32.9454 2.04063 33.0679 2.13613C33.1253 2.17734 33.172 2.23173 33.204 2.29472C33.236 2.35771 33.2525 2.42747 33.2519 2.49813V7.94463H38.9624V2.49813C38.9624 2.36013 39.0104 2.24163 39.1059 2.14213C39.2019 2.04213 39.3259 1.99213 39.4794 1.99213H42.8464C42.9994 1.99213 43.1334 2.03063 43.2484 2.10713C43.3634 2.18413 43.4209 2.30663 43.4209 2.47513V18.5501C43.4209 18.7186 43.3709 18.8451 43.2709 18.9291C43.1719 19.0136 43.0414 19.0556 42.8809 19.0556H39.4794C39.3264 19.0556 39.2019 19.0136 39.1059 18.9291C39.0104 18.8451 38.9624 18.7191 38.9624 18.5501V12.0236H33.2519V18.5501C33.2519 18.7111 33.1999 18.8351 33.0969 18.9236C32.9934 19.0116 32.8534 19.0556 32.6769 19.0556H29.2989C28.9774 19.0556 28.8129 18.9061 28.8049 18.6076V2.49813ZM60.2424 18.8606C60.1429 18.9446 60.0374 18.9981 59.9264 19.0211C59.8227 19.0435 59.717 19.0552 59.6109 19.0561H57.8759C57.7379 19.0561 57.6189 19.0311 57.5194 18.9811C57.4194 18.9311 57.3354 18.8641 57.2664 18.7801C57.1958 18.6929 57.1379 18.5961 57.0944 18.4926C57.0481 18.3845 57.0097 18.2733 56.9794 18.1596L56.6234 16.6886C56.5084 16.9261 56.3419 17.1961 56.1234 17.4986C55.887 17.8197 55.6066 18.1058 55.2904 18.3486C54.9534 18.6136 54.5509 18.8356 54.0839 19.0156C53.6164 19.1956 53.0804 19.2856 52.4749 19.2856C51.6019 19.2856 50.8089 19.1171 50.0964 18.7801C49.3989 18.4542 48.7782 17.9842 48.2754 17.4011C47.7739 16.8191 47.3849 16.1391 47.1094 15.3611C46.8334 14.5841 46.6954 13.7546 46.6954 12.8741V5.34763C46.6954 5.05663 46.7589 4.83663 46.8854 4.68713C47.0114 4.53763 47.2124 4.46313 47.4884 4.46313H50.1424C50.4724 4.46313 50.6979 4.51813 50.8204 4.62963C50.9429 4.74063 51.0044 4.95713 51.0044 5.27863V12.7586C51.0044 13.0886 51.0794 13.4006 51.2284 13.6956C51.3779 13.9906 51.5749 14.2506 51.8204 14.4766C52.0654 14.7026 52.3429 14.8811 52.6534 15.0111C52.9634 15.1411 53.2794 15.2061 53.6014 15.2061C53.8769 15.2061 54.1624 15.1411 54.4574 15.0111C54.7544 14.8795 55.0294 14.7031 55.2729 14.4881C55.5219 14.2701 55.7269 14.0131 55.8879 13.7181C56.0489 13.4231 56.1289 13.1111 56.1289 12.7821V5.31313C56.1289 5.18313 56.1539 5.05313 56.2039 4.92263C56.2539 4.79263 56.3284 4.69263 56.4279 4.62363C56.5274 4.56263 56.6214 4.52063 56.7094 4.49763C56.7974 4.47463 56.8994 4.46263 57.0139 4.46263H59.6109C59.9399 4.46263 60.1774 4.54363 60.3229 4.70413C60.4684 4.86513 60.5414 5.07963 60.5414 5.34763V18.2056C60.5414 18.3506 60.5089 18.4851 60.4439 18.6076C60.3789 18.7301 60.2889 18.8261 60.1739 18.8946L60.2424 18.8606V18.8606ZM73.5829 17.2746C73.3759 17.4816 73.1479 17.7036 72.8994 17.9411C72.6504 18.1786 72.3764 18.4011 72.0779 18.6076C71.7775 18.8154 71.4536 18.9871 71.1129 19.1191C70.7571 19.2552 70.3789 19.3234 69.9979 19.3201C68.9564 19.3201 67.9969 19.1251 67.1194 18.7341C66.264 18.3588 65.4939 17.8134 64.8559 17.1311C64.2239 16.4531 63.7299 15.6546 63.3739 14.7351C63.0174 13.8161 62.8394 12.8281 62.8394 11.7706C62.8394 10.7056 63.0174 9.71563 63.3739 8.80063C63.7299 7.88563 64.2239 7.08863 64.8559 6.41063C65.4932 5.729 66.2636 5.18545 67.1194 4.81363C67.9969 4.42663 68.9564 4.23313 69.9979 4.23313C70.4194 4.23313 70.8044 4.29463 71.1529 4.41713C71.4892 4.53364 71.8095 4.69187 72.1064 4.88813C72.3939 5.07963 72.6579 5.29613 72.8994 5.53713C73.1404 5.77863 73.3684 6.01413 73.5829 6.24413V0.992629C73.5829 0.747629 73.6579 0.541129 73.8069 0.372629C73.9564 0.203629 74.1804 0.119629 74.4794 0.119629H77.0644C77.1644 0.119629 77.2694 0.140629 77.3804 0.182629C77.4914 0.225129 77.5929 0.284129 77.6854 0.361129C77.7769 0.437629 77.8514 0.529629 77.9089 0.636629C77.9664 0.744129 77.9954 0.862629 77.9954 0.992629V18.1711C77.9954 18.7611 77.6854 19.0561 77.0644 19.0561H74.8124C74.6594 19.0561 74.5404 19.0361 74.4564 18.9981C74.373 18.9607 74.2999 18.9036 74.2434 18.8316C74.1794 18.7473 74.1273 18.6546 74.0884 18.5561C74.0343 18.4264 73.9769 18.298 73.9164 18.1711L73.5829 17.2746V17.2746ZM66.9759 11.7706C66.9721 12.2538 67.0518 12.7341 67.2114 13.1901C67.3684 13.6301 67.5924 14.0116 67.8839 14.3331C68.1782 14.6572 68.5359 14.9172 68.9349 15.0971C69.3449 15.2851 69.7989 15.3786 70.2969 15.3786C70.7869 15.3786 71.2484 15.2906 71.6814 15.1146C72.102 14.9462 72.4861 14.6983 72.8129 14.3846C73.1376 14.0705 73.4008 13.6984 73.5889 13.2876C73.7839 12.8661 73.8934 12.4141 73.9164 11.9316V11.7706C73.9182 11.2898 73.8243 10.8134 73.6404 10.3691C73.4623 9.93359 73.2031 9.53586 72.8764 9.19713C72.549 8.85879 72.1587 8.58756 71.7274 8.39863C71.2766 8.20114 70.7891 8.10129 70.2969 8.10563C69.7989 8.10563 69.3449 8.20313 68.9349 8.39863C68.5249 8.59363 68.1749 8.86013 67.8839 9.19713C67.5882 9.5421 67.36 9.9397 67.2114 10.3691C67.0536 10.8194 66.9741 11.2935 66.9764 11.7706H66.9759ZM91.3359 17.2746C91.1289 17.4816 90.9009 17.7036 90.6519 17.9411C90.4029 18.1786 90.1289 18.4011 89.8304 18.6076C89.53 18.8154 89.2061 18.9871 88.8654 19.1191C88.5096 19.2552 88.1314 19.3234 87.7504 19.3201C86.7089 19.3201 85.7494 19.1251 84.8724 18.7341C84.0169 18.3589 83.2466 17.8135 82.6084 17.1311C81.9769 16.4531 81.4824 15.6546 81.1264 14.7351C80.7704 13.8161 80.5919 12.8281 80.5919 11.7706C80.5919 10.7056 80.7704 9.71563 81.1264 8.80063C81.4824 7.88563 81.9764 7.08863 82.6084 6.41063C83.2458 5.72895 84.0164 5.18539 84.8724 4.81363C85.7494 4.42663 86.7089 4.23313 87.7504 4.23313C88.1719 4.23313 88.5569 4.29463 88.9054 4.41713C89.2417 4.53364 89.562 4.69187 89.8589 4.88813C90.1464 5.07963 90.4104 5.29613 90.6519 5.53713C90.8934 5.77863 91.1209 6.01413 91.3354 6.24413V0.992629C91.3354 0.747629 91.4104 0.541129 91.5594 0.372629C91.7094 0.203629 91.9329 0.119629 92.2319 0.119629H94.8169C94.9169 0.119629 95.0219 0.140629 95.1329 0.182629C95.2444 0.225129 95.3459 0.284129 95.4379 0.361129C95.5294 0.437629 95.6044 0.529629 95.6619 0.636629C95.7189 0.744129 95.7479 0.862629 95.7479 0.992629V18.1711C95.7479 18.7611 95.4379 19.0561 94.8169 19.0561H92.5649C92.4119 19.0561 92.2929 19.0361 92.2089 18.9981C92.1257 18.9606 92.0528 18.9035 91.9964 18.8316C91.9324 18.7473 91.8803 18.6546 91.8414 18.5561C91.7871 18.4264 91.7296 18.298 91.6689 18.1711L91.3354 17.2746H91.3359ZM84.7284 11.7706C84.7246 12.2538 84.8043 12.7341 84.9639 13.1901C85.1214 13.6301 85.3454 14.0116 85.6364 14.3331C85.9308 14.6572 86.2887 14.9173 86.6879 15.0971C87.0979 15.2851 87.5514 15.3786 88.0494 15.3786C88.5394 15.3786 89.0009 15.2906 89.4339 15.1146C89.8546 14.9462 90.239 14.6984 90.5659 14.3846C90.8903 14.0704 91.1531 13.6983 91.3409 13.2876C91.5364 12.8661 91.6459 12.4141 91.6689 11.9316V11.7706C91.6707 11.2898 91.5768 10.8134 91.3929 10.3691C91.2148 9.93359 90.9555 9.53586 90.6289 9.19713C90.3015 8.85879 89.9112 8.58756 89.4799 8.39863C89.0291 8.20114 88.5416 8.10129 88.0494 8.10563C87.5514 8.10563 87.0974 8.20313 86.6879 8.39863C86.2779 8.59363 85.9274 8.86013 85.6364 9.19713C85.3406 9.5421 85.1125 9.9397 84.9639 10.3691C84.8061 10.8194 84.7266 11.2935 84.7289 11.7706H84.7284ZM98.8049 1.00413C98.8049 0.759129 98.8659 0.552629 98.9884 0.384129C99.1114 0.215129 99.3219 0.131129 99.6204 0.131129H102.435C102.512 0.131129 102.593 0.152129 102.677 0.194129C102.765 0.239423 102.845 0.299835 102.912 0.372629C102.985 0.449129 103.046 0.541129 103.096 0.648129C103.146 0.755629 103.171 0.874129 103.171 1.00413V18.1711C103.171 18.4621 103.089 18.6821 102.924 18.8316C102.759 18.9811 102.547 19.0556 102.286 19.0556H99.6204C99.3219 19.0556 99.1114 18.9806 98.9884 18.8316C98.8659 18.6821 98.8049 18.4616 98.8049 18.1711V1.00413ZM118.155 17.3091C117.489 17.9246 116.718 18.4167 115.88 18.7626C115.031 19.1125 114.121 19.2903 113.202 19.2856C112.152 19.2856 111.161 19.0941 110.226 18.7106C109.313 18.3415 108.478 17.8015 107.767 17.1196C107.059 16.4365 106.489 15.6229 106.09 14.7236C105.676 13.8046 105.469 12.8051 105.469 11.7246C105.469 11.0506 105.551 10.3976 105.716 9.76563C105.876 9.14726 106.111 8.55105 106.417 7.99063C106.72 7.43903 107.091 6.92754 107.52 6.46813C107.949 6.00794 108.438 5.60782 108.974 5.27863C109.519 4.94521 110.107 4.68624 110.72 4.50863C111.366 4.3224 112.036 4.22962 112.708 4.23313C113.344 4.23313 113.96 4.31763 114.558 4.48613C115.155 4.65463 115.717 4.89213 116.241 5.19813C116.766 5.50463 117.246 5.87263 117.683 6.30163C118.114 6.72348 118.492 7.19611 118.809 7.70913C119.124 8.21842 119.369 8.76701 119.539 9.34063C119.711 9.91913 119.798 10.5146 119.798 11.1271C119.798 11.5256 119.792 11.8511 119.78 12.1041C119.769 12.3566 119.709 12.5581 119.602 12.7071C119.495 12.8571 119.317 12.9601 119.068 13.0171C118.819 13.0751 118.453 13.1036 117.971 13.1036H109.698C109.774 13.5936 109.929 14.0036 110.163 14.3336C110.379 14.646 110.654 14.9131 110.973 15.1201C111.279 15.3156 111.605 15.4551 111.95 15.5401C112.269 15.621 112.597 15.6633 112.926 15.6661C113.202 15.6661 113.485 15.6371 113.776 15.5801C114.063 15.5238 114.346 15.447 114.621 15.3501C114.879 15.2605 115.129 15.1489 115.368 15.0166C115.594 14.8906 115.776 14.7581 115.914 14.6206C116.036 14.5206 116.142 14.4461 116.23 14.3961C116.318 14.3461 116.412 14.3216 116.511 14.3216C116.611 14.3216 116.712 14.3566 116.816 14.4251C116.942 14.5132 117.06 14.6132 117.166 14.7236L118.384 16.1026C118.468 16.2026 118.522 16.2926 118.545 16.3726C118.568 16.4531 118.58 16.5356 118.58 16.6196C118.58 16.7731 118.537 16.9051 118.453 17.0161C118.369 17.1278 118.268 17.2265 118.154 17.3091H118.155ZM112.628 7.73763C112.329 7.73763 112.04 7.79713 111.76 7.91563C111.477 8.03674 111.212 8.19732 110.973 8.39263C110.728 8.59163 110.508 8.81763 110.312 9.07063C110.126 9.30916 109.966 9.56736 109.835 9.84063H115.707C115.553 9.55255 115.378 9.27599 115.184 9.01313C115 8.76374 114.784 8.53965 114.541 8.34663C114.293 8.15134 114.013 7.99984 113.713 7.89863C113.403 7.79113 113.041 7.73763 112.628 7.73763Z" fill="#00252E"/>
</g>
<defs>
<clipPath id="clip0_229_195">
<rect width="120" height="19.5" fill="white"/>
</clipPath>
</defs>
</svg>
